<svg width="14" height="15" viewBox="0 0 14 15" fill="none" xmlns="http://www.w3.org/2000/svg">
<mask id="mask0_3_1262" style="mask-type:luminance" maskUnits="userSpaceOnUse" x="9" y="7" width="5" height="1">
<path d="M14.0001 7.22H9.91406V7.782H14.0001V7.22Z" fill="white"/>
</mask>
<g mask="url(#mask0_3_1262)">
<path d="M13.7241 7.50101H10.2131" stroke="#F9F2E5" stroke-width="0.5" stroke-linecap="round" stroke-linejoin="round"/>
</g>
<mask id="mask1_3_1262" style="mask-type:luminance" maskUnits="userSpaceOnUse" x="0" y="7" width="5" height="1">
<path d="M4.206 7.22H0V7.782H4.206V7.22Z" fill="white"/>
</mask>
<g mask="url(#mask1_3_1262)">
<path d="M3.7881 7.50101H0.2771" stroke="#F9F2E5" stroke-width="0.5" stroke-linecap="round" stroke-linejoin="round"/>
</g>
<mask id="mask2_3_1262" style="mask-type:luminance" maskUnits="userSpaceOnUse" x="6" y="0" width="2" height="5">
<path d="M7.43601 0.5H6.68701V4.74H7.43601V0.5Z" fill="white"/>
</mask>
<g mask="url(#mask2_3_1262)">
<path d="M7.00195 4.28801V0.777008" stroke="#F9F2E5" stroke-width="0.5" stroke-linecap="round" stroke-linejoin="round"/>
</g>
<mask id="mask3_3_1262" style="mask-type:luminance" maskUnits="userSpaceOnUse" x="6" y="10" width="2" height="5">
<path d="M7.43601 10.261H6.68701V14.5H7.43601V10.261Z" fill="white"/>
</mask>
<g mask="url(#mask3_3_1262)">
<path d="M7.00195 14.225V10.714" stroke="#F9F2E5" stroke-width="0.5" stroke-linecap="round" stroke-linejoin="round"/>
</g>
<mask id="mask4_3_1262" style="mask-type:luminance" maskUnits="userSpaceOnUse" x="2" y="5" width="10" height="10">
<path d="M11.371 5.577H2.56299V14.5H11.371V5.577Z" fill="white"/>
</mask>
<g mask="url(#mask4_3_1262)">
<path d="M11.0929 10.132C11.0932 10.2656 11.0865 10.3991 11.0729 10.532C11.0604 10.6663 11.0407 10.7998 11.0139 10.932C10.9869 11.064 10.9549 11.193 10.9139 11.321C10.8729 11.449 10.8299 11.575 10.7789 11.699C10.7282 11.8229 10.6711 11.944 10.6079 12.062C10.5449 12.18 10.4759 12.295 10.4009 12.406C10.2518 12.6287 10.0813 12.8364 9.89188 13.026C9.79788 13.12 9.69788 13.21 9.59188 13.296C9.48588 13.382 9.37988 13.46 9.26888 13.535C9.15788 13.61 9.04288 13.678 8.92488 13.742C8.80691 13.8052 8.68575 13.8623 8.56188 13.913C8.43788 13.964 8.31188 14.013 8.18388 14.048C8.05588 14.083 7.92488 14.12 7.79488 14.148C7.66488 14.176 7.53088 14.193 7.39488 14.207C7.25888 14.221 7.12788 14.227 6.99488 14.227C6.86188 14.227 6.72688 14.22 6.59488 14.207C6.4606 14.1944 6.32708 14.1747 6.19488 14.148C6.06388 14.121 5.93388 14.089 5.80588 14.048C5.67788 14.007 5.55188 13.965 5.42788 13.913C5.30388 13.861 5.18288 13.803 5.06488 13.742C4.94688 13.681 4.83188 13.61 4.72088 13.535C4.60988 13.46 4.50188 13.38 4.39788 13.296C4.19136 13.1253 4.00181 12.9351 3.83188 12.728C3.74788 12.628 3.66788 12.517 3.59288 12.406C3.51788 12.295 3.44988 12.18 3.38588 12.062C3.32188 11.944 3.26688 11.823 3.21488 11.699C3.16288 11.575 3.11488 11.449 3.07988 11.321C3.03945 11.1933 3.00607 11.0634 2.97988 10.932C2.95302 10.7998 2.93332 10.6663 2.92088 10.532C2.90788 10.398 2.90088 10.265 2.90088 10.132C2.90088 9.999 2.90788 9.864 2.92088 9.732C2.93348 9.59772 2.95317 9.4642 2.97988 9.332C3.00488 9.2 3.03888 9.071 3.07988 8.943C3.12088 8.815 3.16388 8.689 3.21488 8.565C3.26557 8.44113 3.32265 8.31997 3.38588 8.202C3.44888 8.084 3.51788 7.969 3.59288 7.858C3.66788 7.747 3.74788 7.639 3.83188 7.535C3.91657 7.43035 4.0067 7.33021 4.10188 7.235C4.19588 7.141 4.29588 7.051 4.40188 6.965C4.50788 6.879 4.61388 6.801 4.72488 6.726C4.83588 6.651 4.95088 6.583 5.06888 6.519C5.18688 6.455 5.30788 6.4 5.43188 6.348C5.5554 6.29635 5.68158 6.25129 5.80988 6.213C5.93788 6.175 6.06888 6.141 6.19888 6.113C6.32888 6.085 6.46288 6.068 6.59888 6.054C6.73488 6.04 6.86588 6.034 6.99888 6.034C7.13188 6.034 7.26688 6.041 7.39888 6.054C7.53316 6.06659 7.66668 6.08629 7.79888 6.113C7.92988 6.14 8.05988 6.172 8.18788 6.213C8.31588 6.254 8.44188 6.296 8.56588 6.348C8.68975 6.3987 8.81091 6.45577 8.92888 6.519C9.04688 6.582 9.16188 6.651 9.27288 6.726C9.38388 6.801 9.49188 6.881 9.59588 6.965C9.70055 7.04967 9.80069 7.13979 9.89588 7.235C9.99588 7.335 10.0799 7.429 10.1659 7.535C10.2516 7.63807 10.3314 7.7459 10.4049 7.858C10.4789 7.969 10.5479 8.084 10.6119 8.202C10.6751 8.31997 10.7322 8.44113 10.7829 8.565C10.8339 8.689 10.8829 8.815 10.9179 8.943C10.9529 9.071 10.9899 9.2 11.0179 9.332C11.0447 9.46418 11.0644 9.59771 11.0769 9.732C11.0849 9.864 11.0929 9.998 11.0929 10.132Z" stroke="#F9F2E5" stroke-width="0.5" stroke-linecap="round" stroke-linejoin="round"/>
</g>
<mask id="mask5_3_1262" style="mask-type:luminance" maskUnits="userSpaceOnUse" x="2" y="0" width="10" height="10">
<path d="M11.371 0.5H2.56299V9.426H11.371V0.5Z" fill="white"/>
</mask>
<g mask="url(#mask5_3_1262)">
<path d="M11.093 4.87C11.093 5.13862 11.0665 5.40658 11.014 5.67C10.987 5.801 10.955 5.931 10.914 6.059C10.873 6.187 10.83 6.313 10.779 6.437C10.7286 6.56099 10.6715 6.68217 10.608 6.8C10.545 6.918 10.476 7.033 10.401 7.144C10.326 7.255 10.248 7.363 10.162 7.467C10.0773 7.57168 9.98718 7.67182 9.89197 7.767C9.79797 7.867 9.69797 7.951 9.59197 8.037C9.48597 8.123 9.37997 8.201 9.26897 8.276C9.15797 8.351 9.04297 8.419 8.92497 8.483C8.80697 8.547 8.68597 8.602 8.56197 8.654C8.43797 8.706 8.31197 8.754 8.18397 8.789C8.05597 8.824 7.92497 8.861 7.79497 8.889C7.66277 8.91571 7.52925 8.93541 7.39497 8.948C7.26097 8.961 7.12797 8.968 6.99497 8.968C6.86197 8.968 6.72697 8.961 6.59497 8.948C6.46069 8.93541 6.32717 8.91571 6.19497 8.889C6.06397 8.864 5.93397 8.83 5.80597 8.789C5.67797 8.748 5.55197 8.705 5.42797 8.654C5.3041 8.60331 5.18294 8.54623 5.06497 8.483C4.94697 8.42 4.83197 8.351 4.72097 8.276C4.60997 8.201 4.50197 8.123 4.39797 8.037C4.29397 7.951 4.19797 7.863 4.09797 7.767C4.00277 7.67182 3.91264 7.57168 3.82797 7.467C3.74397 7.367 3.66397 7.255 3.58897 7.144C3.51397 7.033 3.44597 6.918 3.38197 6.8C3.31797 6.682 3.26297 6.561 3.21097 6.437C3.15897 6.313 3.11097 6.187 3.07597 6.059C3.04097 5.931 3.00397 5.8 2.97597 5.67C2.94927 5.5378 2.92957 5.40428 2.91697 5.27C2.90397 5.136 2.89697 5.003 2.89697 4.87C2.89697 4.737 2.90397 4.602 2.91697 4.47C2.92957 4.33572 2.94927 4.2022 2.97597 4.07C3.00097 3.939 3.03497 3.809 3.07597 3.681C3.11697 3.553 3.15997 3.427 3.21097 3.303C3.26139 3.17901 3.31848 3.05784 3.38197 2.94C3.44497 2.822 3.51397 2.707 3.58897 2.596C3.66397 2.485 3.74397 2.377 3.82797 2.273C3.91264 2.16833 4.00277 2.06819 4.09797 1.973C4.19197 1.873 4.29197 1.789 4.39797 1.703C4.50397 1.617 4.60997 1.539 4.72097 1.464C4.83197 1.389 4.94697 1.321 5.06497 1.257C5.18294 1.19378 5.3041 1.1367 5.42797 1.086C5.55297 1.035 5.67797 0.986003 5.80597 0.951003C5.93376 0.910745 6.06361 0.877364 6.19497 0.851003C6.32717 0.824293 6.46069 0.804599 6.59497 0.792003C6.72897 0.779003 6.86197 0.772003 6.99497 0.772003C7.12797 0.772003 7.26297 0.779003 7.39497 0.792003C7.52925 0.804599 7.66277 0.824293 7.79497 0.851003C7.92597 0.878003 8.05597 0.910003 8.18397 0.951003C8.31197 0.992003 8.43797 1.035 8.56197 1.086C8.68584 1.1367 8.807 1.19378 8.92497 1.257C9.04297 1.32 9.15797 1.389 9.26897 1.464C9.37997 1.539 9.48797 1.617 9.59197 1.703C9.69597 1.789 9.79197 1.877 9.89197 1.973C9.99197 2.069 10.076 2.167 10.162 2.273C10.2473 2.37633 10.3271 2.48415 10.401 2.596C10.475 2.707 10.544 2.822 10.608 2.94C10.6712 3.05797 10.7283 3.17913 10.779 3.303C10.83 3.427 10.879 3.553 10.914 3.681C10.9542 3.80879 10.9876 3.93864 11.014 4.07C11.0407 4.2022 11.0604 4.33572 11.073 4.47C11.086 4.604 11.093 4.737 11.093 4.87Z" stroke="#F9F2E5" stroke-width="0.5" stroke-linecap="round" stroke-linejoin="round"/>
</g>
<mask id="mask6_3_1262" style="mask-type:luminance" maskUnits="userSpaceOnUse" x="0" y="3" width="9" height="9">
<path d="M8.892 3.09698H0V11.905H8.892V3.09698Z" fill="white"/>
</mask>
<g mask="url(#mask6_3_1262)">
<path d="M8.46098 7.50199C8.46098 7.63599 8.45398 7.76999 8.44098 7.90199C8.42854 8.03629 8.40884 8.16982 8.38198 8.30199C8.35698 8.43399 8.32298 8.56299 8.28198 8.69299C8.24098 8.82299 8.19798 8.94699 8.14698 9.07099C8.09628 9.19486 8.03921 9.31602 7.97598 9.43399C7.91298 9.55199 7.84398 9.66699 7.76898 9.77799C7.69398 9.88899 7.61398 9.99699 7.52998 10.1C7.44529 10.2046 7.35516 10.3048 7.25998 10.4C7.15998 10.5 7.06598 10.584 6.95998 10.67C6.85666 10.7554 6.74884 10.8351 6.63698 10.909C6.52598 10.983 6.41098 11.052 6.29298 11.116C6.17501 11.1792 6.05385 11.2363 5.92998 11.287C5.80498 11.338 5.67998 11.387 5.55198 11.422C5.42398 11.457 5.29298 11.494 5.16298 11.522C5.03078 11.5487 4.89726 11.5684 4.76298 11.581C4.62898 11.594 4.49598 11.601 4.36298 11.601C4.22998 11.601 4.09498 11.594 3.96298 11.581C3.8287 11.5684 3.69518 11.5487 3.56298 11.522C3.43198 11.495 3.30198 11.463 3.17398 11.422C3.04598 11.381 2.91998 11.338 2.79598 11.287C2.67211 11.2363 2.55095 11.1792 2.43298 11.116C2.31498 11.053 2.19998 10.984 2.08898 10.909C1.97798 10.834 1.86998 10.756 1.76598 10.67C1.66131 10.5853 1.56117 10.4952 1.46598 10.4C1.36598 10.3 1.28198 10.206 1.19598 10.1C1.11028 9.99727 1.03048 9.88976 0.956982 9.77799C0.882982 9.66699 0.813982 9.55199 0.749982 9.43399C0.686756 9.31602 0.62968 9.19486 0.578982 9.07099C0.527982 8.94699 0.478982 8.82099 0.443982 8.69299C0.371534 8.43445 0.323984 8.16958 0.301982 7.90199C0.288982 7.76799 0.281982 7.63499 0.281982 7.50199C0.281982 7.36899 0.288982 7.23399 0.301982 7.10199C0.31458 6.96771 0.334274 6.83419 0.360982 6.70199C0.387982 6.57099 0.419982 6.44099 0.460982 6.31299C0.501982 6.18499 0.544982 6.05899 0.595982 5.93499C0.64668 5.81112 0.703756 5.68996 0.766982 5.57199C0.829982 5.45399 0.898982 5.33899 0.973982 5.22799C1.04898 5.11699 1.12698 5.00899 1.21298 4.90499C1.38345 4.69896 1.57296 4.50946 1.77898 4.33899C1.87898 4.25499 1.99098 4.17499 2.10198 4.09999C2.21298 4.02499 2.32798 3.95699 2.44598 3.89299C2.56398 3.82899 2.68498 3.77399 2.80898 3.72199C2.93298 3.66999 3.05898 3.62199 3.18698 3.58699C3.31477 3.54673 3.44462 3.51335 3.57598 3.48699C3.70818 3.46028 3.8417 3.44059 3.97598 3.42799C4.10998 3.41499 4.24298 3.40799 4.37598 3.40799C4.50898 3.40799 4.64398 3.41499 4.77598 3.42799C4.91026 3.44059 5.04378 3.46028 5.17598 3.48699C5.30698 3.51199 5.43698 3.54599 5.56498 3.58699C5.69298 3.62799 5.81898 3.67099 5.94298 3.72199C6.06685 3.77269 6.18801 3.82976 6.30598 3.89299C6.42398 3.95599 6.53898 4.02499 6.64998 4.09999C6.76098 4.17499 6.86898 4.25499 6.97298 4.33899C7.17901 4.50946 7.36851 4.69896 7.53898 4.90499C7.62298 5.00499 7.70298 5.11699 7.77798 5.22799C7.85298 5.33899 7.92098 5.45399 7.98498 5.57199C8.04898 5.68999 8.10398 5.81099 8.15598 5.93499C8.20798 6.05899 8.25598 6.18499 8.29098 6.31299C8.32598 6.44099 8.36298 6.57199 8.39098 6.70199C8.41769 6.83419 8.43739 6.96771 8.44998 7.10199C8.45398 7.23499 8.46098 7.36799 8.46098 7.50199Z" stroke="#F9F2E5" stroke-width="0.5" stroke-linecap="round" stroke-linejoin="round"/>
</g>
<mask id="mask7_3_1262" style="mask-type:luminance" maskUnits="userSpaceOnUse" x="5" y="3" width="9" height="9">
<path d="M14 3.09698H5.22998V11.905H14V3.09698Z" fill="white"/>
</mask>
<g mask="url(#mask7_3_1262)">
<path d="M13.724 7.502C13.724 7.636 13.717 7.77 13.704 7.902C13.6916 8.0363 13.6719 8.16983 13.645 8.302C13.618 8.434 13.586 8.563 13.545 8.693C13.504 8.823 13.461 8.947 13.41 9.071C13.359 9.195 13.3 9.316 13.239 9.434C13.178 9.552 13.107 9.667 13.032 9.778C12.957 9.889 12.877 9.997 12.793 10.1C12.7083 10.2046 12.6182 10.3048 12.523 10.4C12.423 10.494 12.329 10.584 12.223 10.67C12.1203 10.7557 12.0128 10.8355 11.901 10.909C11.789 10.983 11.675 11.052 11.557 11.116C11.439 11.1792 11.3179 11.2363 11.194 11.287C11.07 11.338 10.944 11.387 10.816 11.422C10.5592 11.4989 10.2957 11.5512 10.029 11.578C9.89501 11.591 9.76201 11.598 9.62901 11.598C9.49601 11.598 9.361 11.591 9.229 11.578C9.09472 11.5654 8.96121 11.5457 8.82901 11.519C8.69701 11.492 8.56801 11.46 8.44001 11.419C8.31201 11.378 8.186 11.335 8.062 11.284C7.93813 11.2333 7.81697 11.1762 7.69901 11.113C7.58101 11.05 7.466 10.981 7.355 10.906C7.24323 10.832 7.13542 10.7523 7.03201 10.667C6.92702 10.5827 6.82686 10.4926 6.73201 10.397C6.63683 10.3018 6.5467 10.2016 6.46201 10.097C6.37801 9.997 6.298 9.886 6.223 9.775C6.148 9.664 6.08001 9.549 6.01601 9.431C5.95201 9.313 5.89701 9.192 5.84501 9.068C5.79301 8.944 5.74501 8.818 5.71001 8.69C5.67501 8.562 5.638 8.431 5.61 8.299C5.582 8.167 5.56501 8.036 5.55101 7.899C5.53701 7.762 5.53101 7.632 5.53101 7.499C5.53101 7.366 5.53801 7.231 5.55101 7.099C5.5636 6.96472 5.5833 6.8312 5.61 6.699C5.637 6.568 5.66901 6.438 5.71001 6.31C5.75101 6.182 5.79401 6.056 5.84501 5.932C5.8957 5.80813 5.95278 5.68697 6.01601 5.569C6.07901 5.451 6.148 5.336 6.223 5.225C6.298 5.114 6.37801 5.006 6.46201 4.902C6.63248 4.69597 6.82198 4.50647 7.028 4.336C7.128 4.252 7.23901 4.172 7.35101 4.097C7.46301 4.022 7.577 3.954 7.695 3.89C7.813 3.826 7.93401 3.771 8.05801 3.719C8.18201 3.667 8.308 3.619 8.436 3.584C8.56375 3.54358 8.69361 3.5102 8.825 3.484C8.95719 3.45719 9.09071 3.43749 9.22501 3.425C9.35901 3.412 9.492 3.405 9.625 3.405C9.758 3.405 9.89201 3.412 10.025 3.425C10.1593 3.43744 10.2928 3.45714 10.425 3.484C10.557 3.509 10.686 3.543 10.816 3.584C10.946 3.625 11.07 3.668 11.194 3.719C11.3179 3.76969 11.439 3.82677 11.557 3.89C11.675 3.953 11.79 4.022 11.901 4.097C12.012 4.172 12.12 4.252 12.223 4.336C12.3277 4.42069 12.4278 4.51082 12.523 4.606C12.617 4.7 12.707 4.8 12.793 4.906C12.879 5.012 12.957 5.118 13.032 5.229C13.107 5.34 13.175 5.455 13.239 5.573C13.3022 5.69097 13.3593 5.81213 13.41 5.936C13.461 6.061 13.51 6.186 13.545 6.314C13.5853 6.44179 13.6186 6.57164 13.645 6.703C13.672 6.835 13.69 6.967 13.704 7.103C13.718 7.239 13.724 7.368 13.724 7.502Z" stroke="#F9F2E5" stroke-width="0.5" stroke-linecap="round" stroke-linejoin="round"/>
</g>
</svg>
