<svg width="133" height="22" viewBox="0 0 133 22" fill="none" xmlns="http://www.w3.org/2000/svg">
<path d="M0 21.452V1.48499H10.853V4.67499H3.429V9.75299H9.829V12.974H3.429V18.258H10.853V21.452H0Z" fill="#F9F2E5"/>
<path d="M21.355 21.453L18.732 16.836H18.544L15.932 21.453H12.552L16.681 14.459L12.659 7.68201H16.223L18.707 12.057H18.87L21.354 7.68201H24.732L20.762 14.431L24.891 21.45H21.355V21.453Z" fill="#F9F2E5"/>
<path d="M33.767 21.563C33.1571 21.632 32.5439 21.6677 31.93 21.67C30.7378 21.7557 29.5464 21.4927 28.501 20.913C27.7536 20.3958 27.2394 19.6057 27.069 18.713C26.8185 17.3465 26.7102 15.9578 26.746 14.569C26.7071 13.1831 26.83 11.7974 27.112 10.44C27.2968 9.5391 27.8178 8.74243 28.569 8.21199C29.5765 7.64824 30.7263 7.39006 31.878 7.46899C32.5049 7.47002 33.1312 7.50574 33.754 7.57599C34.2798 7.62567 34.7997 7.72443 35.307 7.87099V10.408C34.4603 10.2565 33.6012 10.1838 32.741 10.191C32.1175 10.1487 31.4928 10.2546 30.918 10.5C30.7164 10.6317 30.5465 10.8065 30.4204 11.0117C30.2944 11.217 30.2154 11.4476 30.189 11.687C30.0471 12.6384 29.9889 13.6004 30.015 14.562C29.9885 15.5324 30.0515 16.5031 30.203 17.462C30.2308 17.7008 30.312 17.9302 30.4407 18.1333C30.5693 18.3364 30.742 18.5078 30.946 18.635C31.5233 18.8709 32.1468 18.9718 32.769 18.93C33.6538 18.9331 34.5376 18.8703 35.413 18.742V21.251C34.8734 21.3941 34.3234 21.4944 33.768 21.551L33.767 21.563Z" fill="#F9F2E5"/>
<path d="M38.7529 3.292V0H42.0719V3.292H38.7529ZM38.7809 21.453V6.728H42.0469V21.453H38.7809Z" fill="#F9F2E5"/>
<path d="M66.885 15.621H59.351C59.3212 16.3762 59.3797 17.1323 59.525 17.874C59.5781 18.0777 59.6828 18.2642 59.8291 18.4156C59.9754 18.567 60.1582 18.678 60.36 18.738C61.1146 18.9276 61.8928 19.0054 62.67 18.969C63.9333 18.9642 65.1955 18.8918 66.451 18.752V21.261C65.7755 21.4107 65.0901 21.5109 64.4 21.561C63.554 21.632 62.733 21.668 61.944 21.668C60.6076 21.754 59.2701 21.5177 58.044 20.979C57.6452 20.7598 57.2971 20.4588 57.0228 20.0957C56.7484 19.7326 56.5539 19.3156 56.452 18.872C56.1651 17.4646 56.0423 16.0287 56.086 14.593C56.0409 13.1751 56.1637 11.7569 56.452 10.368C56.5515 9.91973 56.7403 9.4961 57.0071 9.12241C57.2739 8.74872 57.6133 8.43263 58.005 8.19299C59.1527 7.62873 60.429 7.37726 61.705 7.46399C62.93 7.3697 64.1575 7.61174 65.255 8.16399C65.6167 8.39752 65.9252 8.70457 66.1603 9.06518C66.3955 9.42578 66.5521 9.83186 66.62 10.257C66.8343 11.6905 66.9247 13.1399 66.89 14.589V15.616L66.885 15.621ZM60.136 10.383C59.9749 10.4773 59.8367 10.6062 59.7316 10.7605C59.6264 10.9148 59.5569 11.0905 59.528 11.275C59.4047 11.9788 59.3464 12.6925 59.354 13.407H63.807C63.8298 12.6824 63.7715 11.9576 63.633 11.246C63.6014 11.0607 63.5293 10.8846 63.4218 10.7304C63.3143 10.5762 63.174 10.4477 63.011 10.354C62.5763 10.1866 62.1112 10.1126 61.646 10.137C61.131 10.1044 60.6151 10.1871 60.136 10.379V10.383Z" fill="#F9F2E5"/>
<path d="M86.3849 21.54C85.6951 21.6242 85.0009 21.6676 84.3059 21.67C82.7928 21.776 81.2789 21.4756 79.9209 20.8C79.4261 20.4595 79.0059 20.0218 78.6858 19.5136C78.3657 19.0054 78.1524 18.4373 78.0589 17.844C77.6842 15.741 77.5258 13.6052 77.5859 11.47C77.525 9.3397 77.6835 7.20881 78.0589 5.11098C78.1572 4.51758 78.374 3.95003 78.6963 3.44218C79.0186 2.93433 79.4398 2.49657 79.9349 2.15498C81.2874 1.47261 82.7986 1.16692 84.3099 1.26998C85.0123 1.27218 85.7139 1.32062 86.4099 1.41498C86.9941 1.48332 87.5717 1.59937 88.1369 1.76198V4.71698C87.1265 4.57151 86.1084 4.48503 85.0879 4.45798C84.1328 4.39107 83.1746 4.53444 82.2809 4.87798C81.987 5.07401 81.7426 5.33551 81.5669 5.64193C81.3911 5.94835 81.2888 6.29135 81.2679 6.64398C81.0752 8.24502 80.998 9.85786 81.0369 11.47C80.9963 13.0821 81.0735 14.6951 81.2679 16.296C81.2882 16.6487 81.3903 16.9919 81.5661 17.2984C81.742 17.6049 81.9867 17.8663 82.2809 18.062C83.1741 18.4074 84.1327 18.5509 85.0879 18.482C86.1369 18.4812 87.1841 18.3946 88.2189 18.223V21.21C87.6159 21.367 87.0018 21.478 86.3819 21.542L86.3849 21.54Z" fill="#F9F2E5"/>
<path d="M93.3309 21.062C92.9486 20.8622 92.6164 20.5785 92.3592 20.2322C92.1021 19.8858 91.9266 19.4858 91.8459 19.062C91.5841 17.5771 91.4758 16.0691 91.5229 14.562C91.4763 13.0483 91.5845 11.5337 91.8459 10.042C91.9262 9.62024 92.1016 9.22236 92.359 8.87871C92.6163 8.53505 92.9488 8.2547 93.3309 8.05901C94.5415 7.58729 95.8402 7.38493 97.1369 7.46601C98.4245 7.38385 99.7144 7.58631 100.915 8.05901C101.299 8.25665 101.632 8.53971 101.89 8.88643C102.147 9.23315 102.322 9.63429 102.4 10.059C102.661 11.5474 102.769 13.0586 102.723 14.569C102.77 16.0761 102.662 17.5841 102.4 19.069C102.319 19.4928 102.144 19.8928 101.887 20.2392C101.629 20.5855 101.297 20.8692 100.915 21.069C99.7168 21.5513 98.4259 21.759 97.1369 21.677C95.8389 21.7583 94.539 21.5507 93.3309 21.069V21.062ZM98.7859 18.674C98.9569 18.5493 99.097 18.3872 99.1956 18.2C99.2942 18.0128 99.3487 17.8055 99.3549 17.594C99.4454 16.5887 99.4811 15.5792 99.4619 14.57C99.4812 13.5562 99.4455 12.542 99.3549 11.532C99.3492 11.324 99.2964 11.12 99.2004 10.9354C99.1044 10.7507 98.9679 10.5902 98.8009 10.466C98.2778 10.2424 97.708 10.1498 97.1409 10.196C96.5694 10.151 95.9953 10.2436 95.4669 10.466C95.2971 10.5886 95.1576 10.7484 95.0589 10.9331C94.9603 11.1179 94.9053 11.3227 94.8979 11.532C94.8067 12.542 94.771 13.5562 94.7909 14.57C94.7712 15.5792 94.8069 16.5887 94.8979 17.594C94.9026 17.8058 94.9564 18.0136 95.0552 18.2011C95.1539 18.3885 95.2949 18.5504 95.4669 18.674C95.9953 18.8964 96.5694 18.989 97.1409 18.944C97.7031 18.9898 98.2679 18.897 98.7859 18.674Z" fill="#F9F2E5"/>
<path d="M108.915 21.005C108.23 20.413 107.771 19.6026 107.615 18.711C107.304 17.1983 107.168 15.6548 107.21 14.111C107.17 12.5769 107.301 11.043 107.601 9.538C107.755 8.63935 108.202 7.81705 108.873 7.2C109.583 6.69029 110.446 6.44061 111.318 6.493C112.061 6.46907 112.799 6.61191 113.479 6.911C114.081 7.2162 114.558 7.72095 114.829 8.339H115.017V0H118.258V21.438H115.234L115.127 19.619H114.939C114.416 20.9863 113.238 21.6687 111.403 21.666C110.525 21.7183 109.653 21.4846 108.919 21L108.915 21.005ZM114.057 18.323C114.375 18.1238 114.61 17.8161 114.718 17.457C114.84 17.0282 114.918 16.5878 114.949 16.143C114.995 15.615 115.017 14.928 115.017 14.08C115.017 13.29 115.003 12.663 114.978 12.188C114.962 11.7812 114.895 11.378 114.778 10.988C114.7 10.5654 114.469 10.186 114.131 9.921C113.723 9.68212 113.253 9.571 112.781 9.602C112.249 9.56079 111.714 9.65469 111.228 9.875C111.054 10.0151 110.911 10.1904 110.809 10.3894C110.706 10.5884 110.647 10.8066 110.635 11.03C110.512 12.0394 110.462 13.0564 110.486 14.073C110.462 15.0996 110.512 16.1265 110.635 17.146C110.647 17.3694 110.706 17.5876 110.809 17.7866C110.911 17.9856 111.054 18.1609 111.228 18.301C111.714 18.5213 112.249 18.6152 112.781 18.574C113.224 18.5984 113.665 18.5096 114.064 18.316L114.057 18.323Z" fill="#F9F2E5"/>
<path d="M131.997 15.621H124.463C124.433 16.3762 124.492 17.1323 124.637 17.874C124.69 18.0777 124.795 18.2643 124.941 18.4156C125.087 18.567 125.27 18.678 125.472 18.738C126.227 18.9276 127.005 19.0054 127.782 18.969C129.045 18.9643 130.308 18.8918 131.563 18.752V21.261C130.888 21.4107 130.202 21.511 129.512 21.561C128.666 21.632 127.845 21.668 127.056 21.668C125.72 21.7541 124.382 21.5178 123.156 20.979C122.757 20.7598 122.409 20.4588 122.135 20.0956C121.861 19.7325 121.666 19.3155 121.564 18.872C121.277 17.4646 121.154 16.0287 121.198 14.593C121.153 13.1752 121.276 11.757 121.564 10.368C121.664 9.91977 121.852 9.49617 122.119 9.12248C122.386 8.7488 122.725 8.43269 123.117 8.19301C124.265 7.62875 125.541 7.37728 126.817 7.46401C128.042 7.36966 129.27 7.61171 130.367 8.16401C130.729 8.39753 131.037 8.70459 131.272 9.06519C131.508 9.4258 131.664 9.83188 131.732 10.257C131.946 11.6906 132.037 13.1399 132.002 14.589V15.616L131.997 15.621ZM125.248 10.383C125.087 10.4773 124.949 10.6063 124.844 10.7605C124.738 10.9148 124.669 11.0905 124.64 11.275C124.517 11.9788 124.458 12.6925 124.466 13.407H128.919C128.942 12.6824 128.884 11.9576 128.745 11.246C128.714 11.0607 128.641 10.8846 128.534 10.7304C128.426 10.5762 128.286 10.4476 128.123 10.354C127.688 10.1866 127.223 10.1126 126.758 10.137C126.243 10.1044 125.727 10.1871 125.248 10.379V10.383Z" fill="#F9F2E5"/>
<path d="M51.1721 19.342C52.0074 19.3513 52.8341 19.174 53.5921 18.823L53.3571 21.453C52.4987 21.8102 51.5788 21.996 50.6491 22C47.7351 22 45.9121 20.543 45.9121 17.576V5.26198L49.1641 4.82098V8.36098H53.6131L53.3781 10.781H49.1631V17.181C49.1631 18.819 50.1011 19.342 51.1631 19.342H51.1721Z" fill="#F9F2E5"/>
</svg>
